<?xml version="1.0" encoding="UTF-8" standalone="no"?>
<!DOCTYPE svg PUBLIC "-//W3C//DTD SVG 1.1//EN"
 "http://www.w3.org/Graphics/SVG/1.1/DTD/svg11.dtd">
<!-- Generated by graphviz version 2.47.3 (20210619.1520)
 -->
<!-- Title: dependencies Pages: 1 -->
<svg width="978pt" height="174pt"
 viewBox="0.00 0.00 978.00 173.80" xmlns="http://www.w3.org/2000/svg" xmlns:xlink="http://www.w3.org/1999/xlink">
<g id="graph0" class="graph" transform="scale(1 1) rotate(0) translate(4 169.8)">
<title>dependencies</title>
<polygon fill="white" stroke="transparent" points="-4,4 -4,-169.8 974,-169.8 974,4 -4,4"/>
<text text-anchor="middle" x="485" y="-8.2" font-family="sans-serif" font-size="14.00">dependencies</text>
<g id="clust1" class="cluster">
<title>cluster_UsersModule</title>
<polygon fill="none" stroke="black" stroke-dasharray="1,5" points="8,-32.8 8,-157.8 962,-157.8 962,-32.8 8,-32.8"/>
</g>
<g id="clust3" class="cluster">
<title>cluster_UsersModule_imports</title>
<polygon fill="none" stroke="black" points="164,-40.8 164,-92.8 954,-92.8 954,-40.8 164,-40.8"/>
</g>
<g id="clust6" class="cluster">
<title>cluster_UsersModule_providers</title>
<polygon fill="none" stroke="black" points="16,-40.8 16,-92.8 156,-92.8 156,-40.8 16,-40.8"/>
</g>
<!-- AccountsCredentialsModule -->
<g id="node1" class="node">
<title>AccountsCredentialsModule</title>
<polygon fill="#8dd3c7" stroke="black" points="946.18,-84.8 943.18,-88.8 922.18,-88.8 919.18,-84.8 769.82,-84.8 769.82,-48.8 946.18,-48.8 946.18,-84.8"/>
<text text-anchor="middle" x="858" y="-62.6" font-family="Times,serif" font-size="14.00">AccountsCredentialsModule</text>
</g>
<!-- UsersModule -->
<g id="node6" class="node">
<title>UsersModule</title>
<polygon fill="#8dd3c7" stroke="black" points="504.92,-149.8 501.92,-153.8 480.92,-153.8 477.92,-149.8 413.08,-149.8 413.08,-113.8 504.92,-113.8 504.92,-149.8"/>
<text text-anchor="middle" x="459" y="-127.6" font-family="Times,serif" font-size="14.00">UsersModule</text>
</g>
<!-- AccountsCredentialsModule&#45;&gt;UsersModule -->
<g id="edge1" class="edge">
<title>AccountsCredentialsModule&#45;&gt;UsersModule</title>
<path fill="none" stroke="black" d="M858,-85.08C858,-106.12 858,-137.8 858,-137.8 858,-137.8 514.77,-137.8 514.77,-137.8"/>
<polygon fill="black" stroke="black" points="514.77,-134.3 504.77,-137.8 514.77,-141.3 514.77,-134.3"/>
</g>
<!-- AccountsModule -->
<g id="node2" class="node">
<title>AccountsModule</title>
<polygon fill="#8dd3c7" stroke="black" points="752.42,-84.8 749.42,-88.8 728.42,-88.8 725.42,-84.8 639.58,-84.8 639.58,-48.8 752.42,-48.8 752.42,-84.8"/>
<text text-anchor="middle" x="696" y="-62.6" font-family="Times,serif" font-size="14.00">AccountsModule</text>
</g>
<!-- AccountsModule&#45;&gt;UsersModule -->
<g id="edge2" class="edge">
<title>AccountsModule&#45;&gt;UsersModule</title>
<path fill="none" stroke="black" d="M696,-84.82C696,-102.17 696,-125.8 696,-125.8 696,-125.8 514.98,-125.8 514.98,-125.8"/>
<polygon fill="black" stroke="black" points="514.98,-122.3 504.98,-125.8 514.98,-129.3 514.98,-122.3"/>
</g>
<!-- AccountsProfilesModule -->
<g id="node3" class="node">
<title>AccountsProfilesModule</title>
<polygon fill="#8dd3c7" stroke="black" points="621.97,-84.8 618.97,-88.8 597.97,-88.8 594.97,-84.8 466.03,-84.8 466.03,-48.8 621.97,-48.8 621.97,-84.8"/>
<text text-anchor="middle" x="544" y="-62.6" font-family="Times,serif" font-size="14.00">AccountsProfilesModule</text>
</g>
<!-- AccountsProfilesModule&#45;&gt;UsersModule -->
<g id="edge3" class="edge">
<title>AccountsProfilesModule&#45;&gt;UsersModule</title>
<path fill="none" stroke="black" d="M485.36,-84.91C485.36,-84.91 485.36,-103.79 485.36,-103.79"/>
<polygon fill="black" stroke="black" points="481.86,-103.79 485.36,-113.79 488.86,-103.79 481.86,-103.79"/>
</g>
<!-- AccountsTypesModule -->
<g id="node4" class="node">
<title>AccountsTypesModule</title>
<polygon fill="#8dd3c7" stroke="black" points="448.13,-84.8 445.13,-88.8 424.13,-88.8 421.13,-84.8 301.87,-84.8 301.87,-48.8 448.13,-48.8 448.13,-84.8"/>
<text text-anchor="middle" x="375" y="-62.6" font-family="Times,serif" font-size="14.00">AccountsTypesModule</text>
</g>
<!-- AccountsTypesModule&#45;&gt;UsersModule -->
<g id="edge4" class="edge">
<title>AccountsTypesModule&#45;&gt;UsersModule</title>
<path fill="none" stroke="black" d="M430.8,-84.91C430.8,-84.91 430.8,-103.79 430.8,-103.79"/>
<polygon fill="black" stroke="black" points="427.3,-103.79 430.8,-113.79 434.3,-103.79 427.3,-103.79"/>
</g>
<!-- CommonModule -->
<g id="node5" class="node">
<title>CommonModule</title>
<polygon fill="#8dd3c7" stroke="black" points="283.67,-84.8 280.67,-88.8 259.67,-88.8 256.67,-84.8 172.33,-84.8 172.33,-48.8 283.67,-48.8 283.67,-84.8"/>
<text text-anchor="middle" x="228" y="-62.6" font-family="Times,serif" font-size="14.00">CommonModule</text>
</g>
<!-- CommonModule&#45;&gt;UsersModule -->
<g id="edge5" class="edge">
<title>CommonModule&#45;&gt;UsersModule</title>
<path fill="none" stroke="black" d="M228,-84.82C228,-102.17 228,-125.8 228,-125.8 228,-125.8 403.09,-125.8 403.09,-125.8"/>
<polygon fill="black" stroke="black" points="403.09,-129.3 413.09,-125.8 403.09,-122.3 403.09,-129.3"/>
</g>
<!-- UsersService -->
<g id="node7" class="node">
<title>UsersService</title>
<ellipse fill="#fdb462" stroke="black" cx="86" cy="-66.8" rx="61.95" ry="18"/>
<text text-anchor="middle" x="86" y="-62.6" font-family="Times,serif" font-size="14.00">UsersService</text>
</g>
<!-- UsersService&#45;&gt;UsersModule -->
<g id="edge6" class="edge">
<title>UsersService&#45;&gt;UsersModule</title>
<path fill="none" stroke="black" d="M86,-85.08C86,-106.12 86,-137.8 86,-137.8 86,-137.8 403.26,-137.8 403.26,-137.8"/>
<polygon fill="black" stroke="black" points="403.26,-141.3 413.26,-137.8 403.26,-134.3 403.26,-141.3"/>
</g>
</g>
</svg>
