<?xml version="1.0" encoding="UTF-8" standalone="no"?>
<!DOCTYPE svg PUBLIC "-//W3C//DTD SVG 1.1//EN"
 "http://www.w3.org/Graphics/SVG/1.1/DTD/svg11.dtd">
<!-- Generated by graphviz version 2.47.3 (20210619.1520)
 -->
<!-- Title: dependencies Pages: 1 -->
<svg width="418pt" height="247pt"
 viewBox="0.00 0.00 418.00 246.80" xmlns="http://www.w3.org/2000/svg" xmlns:xlink="http://www.w3.org/1999/xlink">
<g id="graph0" class="graph" transform="scale(1 1) rotate(0) translate(4 242.8)">
<title>dependencies</title>
<polygon fill="white" stroke="transparent" points="-4,4 -4,-242.8 414,-242.8 414,4 -4,4"/>
<text text-anchor="middle" x="205" y="-8.2" font-family="sans-serif" font-size="14.00">dependencies</text>
<g id="clust1" class="cluster">
<title>cluster_AccountCredentialModule</title>
<polygon fill="none" stroke="black" stroke-dasharray="1,5" points="8,-32.8 8,-230.8 402,-230.8 402,-32.8 8,-32.8"/>
</g>
<g id="clust3" class="cluster">
<title>cluster_AccountCredentialModule_imports</title>
<polygon fill="none" stroke="black" points="266,-40.8 266,-92.8 394,-92.8 394,-40.8 266,-40.8"/>
</g>
<g id="clust4" class="cluster">
<title>cluster_AccountCredentialModule_exports</title>
<polygon fill="none" stroke="black" points="127,-170.8 127,-222.8 311,-222.8 311,-170.8 127,-170.8"/>
</g>
<g id="clust6" class="cluster">
<title>cluster_AccountCredentialModule_providers</title>
<polygon fill="none" stroke="black" points="16,-40.8 16,-92.8 258,-92.8 258,-40.8 16,-40.8"/>
</g>
<!-- CommonModule -->
<g id="node1" class="node">
<title>CommonModule</title>
<polygon fill="#8dd3c7" stroke="black" points="385.67,-84.8 382.67,-88.8 361.67,-88.8 358.67,-84.8 274.33,-84.8 274.33,-48.8 385.67,-48.8 385.67,-84.8"/>
<text text-anchor="middle" x="330" y="-62.6" font-family="Times,serif" font-size="14.00">CommonModule</text>
</g>
<!-- AccountCredentialModule -->
<g id="node2" class="node">
<title>AccountCredentialModule</title>
<polygon fill="#8dd3c7" stroke="black" points="301.79,-149.8 298.79,-153.8 277.79,-153.8 274.79,-149.8 136.21,-149.8 136.21,-113.8 301.79,-113.8 301.79,-149.8"/>
<text text-anchor="middle" x="219" y="-127.6" font-family="Times,serif" font-size="14.00">AccountCredentialModule</text>
</g>
<!-- CommonModule&#45;&gt;AccountCredentialModule -->
<g id="edge1" class="edge">
<title>CommonModule&#45;&gt;AccountCredentialModule</title>
<path fill="none" stroke="black" d="M287.91,-84.91C287.91,-84.91 287.91,-103.79 287.91,-103.79"/>
<polygon fill="black" stroke="black" points="284.41,-103.79 287.91,-113.79 291.41,-103.79 284.41,-103.79"/>
</g>
<!-- AccountCredentialService  -->
<g id="node3" class="node">
<title>AccountCredentialService </title>
<polygon fill="#fb8072" stroke="black" points="302.72,-214.8 135.28,-214.8 135.28,-178.8 302.72,-178.8 302.72,-214.8"/>
<text text-anchor="middle" x="219" y="-192.6" font-family="Times,serif" font-size="14.00">AccountCredentialService </text>
</g>
<!-- AccountCredentialModule&#45;&gt;AccountCredentialService  -->
<g id="edge2" class="edge">
<title>AccountCredentialModule&#45;&gt;AccountCredentialService </title>
<path fill="none" stroke="black" stroke-dasharray="5,2" d="M219,-149.91C219,-149.91 219,-168.79 219,-168.79"/>
<polygon fill="black" stroke="black" points="215.5,-168.79 219,-178.79 222.5,-168.79 215.5,-168.79"/>
</g>
<!-- AccountCredentialService -->
<g id="node4" class="node">
<title>AccountCredentialService</title>
<ellipse fill="#fdb462" stroke="black" cx="137" cy="-66.8" rx="112.86" ry="18"/>
<text text-anchor="middle" x="137" y="-62.6" font-family="Times,serif" font-size="14.00">AccountCredentialService</text>
</g>
<!-- AccountCredentialService&#45;&gt;AccountCredentialModule -->
<g id="edge3" class="edge">
<title>AccountCredentialService&#45;&gt;AccountCredentialModule</title>
<path fill="none" stroke="black" d="M193.14,-82.53C193.14,-82.53 193.14,-103.45 193.14,-103.45"/>
<polygon fill="black" stroke="black" points="189.64,-103.45 193.14,-113.45 196.64,-103.45 189.64,-103.45"/>
</g>
</g>
</svg>
