<?xml version="1.0" encoding="UTF-8" standalone="no"?>
<!DOCTYPE svg PUBLIC "-//W3C//DTD SVG 1.1//EN"
 "http://www.w3.org/Graphics/SVG/1.1/DTD/svg11.dtd">
<!-- Generated by graphviz version 2.47.3 (20210619.1520)
 -->
<!-- Title: dependencies Pages: 1 -->
<svg width="1080pt" height="174pt"
 viewBox="0.00 0.00 1080.00 173.80" xmlns="http://www.w3.org/2000/svg" xmlns:xlink="http://www.w3.org/1999/xlink">
<g id="graph0" class="graph" transform="scale(1 1) rotate(0) translate(4 169.8)">
<title>dependencies</title>
<polygon fill="white" stroke="transparent" points="-4,4 -4,-169.8 1076,-169.8 1076,4 -4,4"/>
<text text-anchor="middle" x="536" y="-8.2" font-family="sans-serif" font-size="14.00">dependencies</text>
<g id="clust1" class="cluster">
<title>cluster_AuthModule</title>
<polygon fill="none" stroke="black" stroke-dasharray="1,5" points="8,-32.8 8,-157.8 1064,-157.8 1064,-32.8 8,-32.8"/>
</g>
<g id="clust3" class="cluster">
<title>cluster_AuthModule_imports</title>
<polygon fill="none" stroke="black" points="604,-40.8 604,-92.8 1056,-92.8 1056,-40.8 604,-40.8"/>
</g>
<g id="clust6" class="cluster">
<title>cluster_AuthModule_providers</title>
<polygon fill="none" stroke="black" points="16,-40.8 16,-92.8 596,-92.8 596,-40.8 16,-40.8"/>
</g>
<!-- AccountsCredentialsModule -->
<g id="node1" class="node">
<title>AccountsCredentialsModule</title>
<polygon fill="#8dd3c7" stroke="black" points="1048.18,-84.8 1045.18,-88.8 1024.18,-88.8 1021.18,-84.8 871.82,-84.8 871.82,-48.8 1048.18,-48.8 1048.18,-84.8"/>
<text text-anchor="middle" x="960" y="-62.6" font-family="Times,serif" font-size="14.00">AccountsCredentialsModule</text>
</g>
<!-- AuthModule -->
<g id="node4" class="node">
<title>AuthModule</title>
<polygon fill="#8dd3c7" stroke="black" points="557.55,-149.8 554.55,-153.8 533.55,-153.8 530.55,-149.8 470.45,-149.8 470.45,-113.8 557.55,-113.8 557.55,-149.8"/>
<text text-anchor="middle" x="514" y="-127.6" font-family="Times,serif" font-size="14.00">AuthModule</text>
</g>
<!-- AccountsCredentialsModule&#45;&gt;AuthModule -->
<g id="edge1" class="edge">
<title>AccountsCredentialsModule&#45;&gt;AuthModule</title>
<path fill="none" stroke="black" d="M960,-85.09C960,-107.01 960,-140.8 960,-140.8 960,-140.8 567.58,-140.8 567.58,-140.8"/>
<polygon fill="black" stroke="black" points="567.58,-137.3 557.58,-140.8 567.58,-144.3 567.58,-137.3"/>
</g>
<!-- AccountsModule -->
<g id="node2" class="node">
<title>AccountsModule</title>
<polygon fill="#8dd3c7" stroke="black" points="854.42,-84.8 851.42,-88.8 830.42,-88.8 827.42,-84.8 741.58,-84.8 741.58,-48.8 854.42,-48.8 854.42,-84.8"/>
<text text-anchor="middle" x="798" y="-62.6" font-family="Times,serif" font-size="14.00">AccountsModule</text>
</g>
<!-- AccountsModule&#45;&gt;AuthModule -->
<g id="edge2" class="edge">
<title>AccountsModule&#45;&gt;AuthModule</title>
<path fill="none" stroke="black" d="M798,-84.91C798,-104.14 798,-131.8 798,-131.8 798,-131.8 567.75,-131.8 567.75,-131.8"/>
<polygon fill="black" stroke="black" points="567.75,-128.3 557.75,-131.8 567.75,-135.3 567.75,-128.3"/>
</g>
<!-- CommonModule -->
<g id="node3" class="node">
<title>CommonModule</title>
<polygon fill="#8dd3c7" stroke="black" points="723.67,-84.8 720.67,-88.8 699.67,-88.8 696.67,-84.8 612.33,-84.8 612.33,-48.8 723.67,-48.8 723.67,-84.8"/>
<text text-anchor="middle" x="668" y="-62.6" font-family="Times,serif" font-size="14.00">CommonModule</text>
</g>
<!-- CommonModule&#45;&gt;AuthModule -->
<g id="edge3" class="edge">
<title>CommonModule&#45;&gt;AuthModule</title>
<path fill="none" stroke="black" d="M668,-84.83C668,-101.2 668,-122.8 668,-122.8 668,-122.8 567.72,-122.8 567.72,-122.8"/>
<polygon fill="black" stroke="black" points="567.72,-119.3 557.72,-122.8 567.72,-126.3 567.72,-119.3"/>
</g>
<!-- ApiKeyStrategy -->
<g id="node5" class="node">
<title>ApiKeyStrategy</title>
<ellipse fill="#fdb462" stroke="black" cx="514" cy="-66.8" rx="73.58" ry="18"/>
<text text-anchor="middle" x="514" y="-62.6" font-family="Times,serif" font-size="14.00">ApiKeyStrategy</text>
</g>
<!-- ApiKeyStrategy&#45;&gt;AuthModule -->
<g id="edge4" class="edge">
<title>ApiKeyStrategy&#45;&gt;AuthModule</title>
<path fill="none" stroke="black" d="M514,-84.91C514,-84.91 514,-103.79 514,-103.79"/>
<polygon fill="black" stroke="black" points="510.5,-103.79 514,-113.79 517.5,-103.79 510.5,-103.79"/>
</g>
<!-- AuthService -->
<g id="node6" class="node">
<title>AuthService</title>
<ellipse fill="#fdb462" stroke="black" cx="363" cy="-66.8" rx="59.11" ry="18"/>
<text text-anchor="middle" x="363" y="-62.6" font-family="Times,serif" font-size="14.00">AuthService</text>
</g>
<!-- AuthService&#45;&gt;AuthModule -->
<g id="edge5" class="edge">
<title>AuthService&#45;&gt;AuthModule</title>
<path fill="none" stroke="black" d="M363,-84.83C363,-101.2 363,-122.8 363,-122.8 363,-122.8 460.32,-122.8 460.32,-122.8"/>
<polygon fill="black" stroke="black" points="460.32,-126.3 470.32,-122.8 460.32,-119.3 460.32,-126.3"/>
</g>
<!-- JwtStrategy -->
<g id="node7" class="node">
<title>JwtStrategy</title>
<ellipse fill="#fdb462" stroke="black" cx="229" cy="-66.8" rx="56.76" ry="18"/>
<text text-anchor="middle" x="229" y="-62.6" font-family="Times,serif" font-size="14.00">JwtStrategy</text>
</g>
<!-- JwtStrategy&#45;&gt;AuthModule -->
<g id="edge6" class="edge">
<title>JwtStrategy&#45;&gt;AuthModule</title>
<path fill="none" stroke="black" d="M229,-84.91C229,-104.14 229,-131.8 229,-131.8 229,-131.8 460.4,-131.8 460.4,-131.8"/>
<polygon fill="black" stroke="black" points="460.4,-135.3 470.4,-131.8 460.4,-128.3 460.4,-135.3"/>
</g>
<!-- LocalStrategy -->
<g id="node8" class="node">
<title>LocalStrategy</title>
<ellipse fill="#fdb462" stroke="black" cx="89" cy="-66.8" rx="65.41" ry="18"/>
<text text-anchor="middle" x="89" y="-62.6" font-family="Times,serif" font-size="14.00">LocalStrategy</text>
</g>
<!-- LocalStrategy&#45;&gt;AuthModule -->
<g id="edge7" class="edge">
<title>LocalStrategy&#45;&gt;AuthModule</title>
<path fill="none" stroke="black" d="M89,-85.09C89,-107.01 89,-140.8 89,-140.8 89,-140.8 460.12,-140.8 460.12,-140.8"/>
<polygon fill="black" stroke="black" points="460.12,-144.3 470.12,-140.8 460.12,-137.3 460.12,-144.3"/>
</g>
</g>
</svg>
