<?xml version="1.0" encoding="UTF-8" standalone="no"?>
<!DOCTYPE svg PUBLIC "-//W3C//DTD SVG 1.1//EN"
 "http://www.w3.org/Graphics/SVG/1.1/DTD/svg11.dtd">
<!-- Generated by graphviz version 2.47.3 (20210619.1520)
 -->
<!-- Title: dependencies Pages: 1 -->
<svg width="1431pt" height="174pt"
 viewBox="0.00 0.00 1431.00 173.80" xmlns="http://www.w3.org/2000/svg" xmlns:xlink="http://www.w3.org/1999/xlink">
<g id="graph0" class="graph" transform="scale(1 1) rotate(0) translate(4 169.8)">
<title>dependencies</title>
<polygon fill="white" stroke="transparent" points="-4,4 -4,-169.8 1427,-169.8 1427,4 -4,4"/>
<text text-anchor="middle" x="711.5" y="-8.2" font-family="sans-serif" font-size="14.00">dependencies</text>
<g id="clust1" class="cluster">
<title>cluster_AppModule</title>
<polygon fill="none" stroke="black" stroke-dasharray="1,5" points="8,-32.8 8,-157.8 1415,-157.8 1415,-32.8 8,-32.8"/>
</g>
<g id="clust3" class="cluster">
<title>cluster_AppModule_imports</title>
<polygon fill="none" stroke="black" points="16,-40.8 16,-92.8 1407,-92.8 1407,-40.8 16,-40.8"/>
</g>
<!-- AccountsCredentialsModule -->
<g id="node1" class="node">
<title>AccountsCredentialsModule</title>
<polygon fill="#8dd3c7" stroke="black" points="1399.18,-84.8 1396.18,-88.8 1375.18,-88.8 1372.18,-84.8 1222.82,-84.8 1222.82,-48.8 1399.18,-48.8 1399.18,-84.8"/>
<text text-anchor="middle" x="1311" y="-62.6" font-family="Times,serif" font-size="14.00">AccountsCredentialsModule</text>
</g>
<!-- AppModule -->
<g id="node11" class="node">
<title>AppModule</title>
<polygon fill="#8dd3c7" stroke="black" points="672.66,-149.8 669.66,-153.8 648.66,-153.8 645.66,-149.8 589.34,-149.8 589.34,-113.8 672.66,-113.8 672.66,-149.8"/>
<text text-anchor="middle" x="631" y="-127.6" font-family="Times,serif" font-size="14.00">AppModule</text>
</g>
<!-- AccountsCredentialsModule&#45;&gt;AppModule -->
<g id="edge1" class="edge">
<title>AccountsCredentialsModule&#45;&gt;AppModule</title>
<path fill="none" stroke="black" d="M1311,-84.81C1311,-107.29 1311,-142.8 1311,-142.8 1311,-142.8 682.77,-142.8 682.77,-142.8"/>
<polygon fill="black" stroke="black" points="682.77,-139.3 672.77,-142.8 682.77,-146.3 682.77,-139.3"/>
</g>
<!-- AccountsModule -->
<g id="node2" class="node">
<title>AccountsModule</title>
<polygon fill="#8dd3c7" stroke="black" points="1205.42,-84.8 1202.42,-88.8 1181.42,-88.8 1178.42,-84.8 1092.58,-84.8 1092.58,-48.8 1205.42,-48.8 1205.42,-84.8"/>
<text text-anchor="middle" x="1149" y="-62.6" font-family="Times,serif" font-size="14.00">AccountsModule</text>
</g>
<!-- AccountsModule&#45;&gt;AppModule -->
<g id="edge2" class="edge">
<title>AccountsModule&#45;&gt;AppModule</title>
<path fill="none" stroke="black" d="M1149,-84.93C1149,-105.37 1149,-135.8 1149,-135.8 1149,-135.8 682.95,-135.8 682.95,-135.8"/>
<polygon fill="black" stroke="black" points="682.95,-132.3 672.95,-135.8 682.95,-139.3 682.95,-132.3"/>
</g>
<!-- AccountsProfilesModule -->
<g id="node3" class="node">
<title>AccountsProfilesModule</title>
<polygon fill="#8dd3c7" stroke="black" points="1074.97,-84.8 1071.97,-88.8 1050.97,-88.8 1047.97,-84.8 919.03,-84.8 919.03,-48.8 1074.97,-48.8 1074.97,-84.8"/>
<text text-anchor="middle" x="997" y="-62.6" font-family="Times,serif" font-size="14.00">AccountsProfilesModule</text>
</g>
<!-- AccountsProfilesModule&#45;&gt;AppModule -->
<g id="edge3" class="edge">
<title>AccountsProfilesModule&#45;&gt;AppModule</title>
<path fill="none" stroke="black" d="M997,-85.07C997,-103.36 997,-128.8 997,-128.8 997,-128.8 682.98,-128.8 682.98,-128.8"/>
<polygon fill="black" stroke="black" points="682.98,-125.3 672.98,-128.8 682.98,-132.3 682.98,-125.3"/>
</g>
<!-- AccountsTypesModule -->
<g id="node4" class="node">
<title>AccountsTypesModule</title>
<polygon fill="#8dd3c7" stroke="black" points="901.13,-84.8 898.13,-88.8 877.13,-88.8 874.13,-84.8 754.87,-84.8 754.87,-48.8 901.13,-48.8 901.13,-84.8"/>
<text text-anchor="middle" x="828" y="-62.6" font-family="Times,serif" font-size="14.00">AccountsTypesModule</text>
</g>
<!-- AccountsTypesModule&#45;&gt;AppModule -->
<g id="edge4" class="edge">
<title>AccountsTypesModule&#45;&gt;AppModule</title>
<path fill="none" stroke="black" d="M828,-84.81C828,-100.85 828,-121.8 828,-121.8 828,-121.8 682.78,-121.8 682.78,-121.8"/>
<polygon fill="black" stroke="black" points="682.78,-118.3 672.78,-121.8 682.78,-125.3 682.78,-118.3"/>
</g>
<!-- AgentsModule -->
<g id="node5" class="node">
<title>AgentsModule</title>
<polygon fill="#8dd3c7" stroke="black" points="736.71,-84.8 733.71,-88.8 712.71,-88.8 709.71,-84.8 637.29,-84.8 637.29,-48.8 736.71,-48.8 736.71,-84.8"/>
<text text-anchor="middle" x="687" y="-62.6" font-family="Times,serif" font-size="14.00">AgentsModule</text>
</g>
<!-- AgentsModule&#45;&gt;AppModule -->
<g id="edge5" class="edge">
<title>AgentsModule&#45;&gt;AppModule</title>
<path fill="none" stroke="black" d="M655.11,-84.91C655.11,-84.91 655.11,-103.79 655.11,-103.79"/>
<polygon fill="black" stroke="black" points="651.61,-103.79 655.11,-113.79 658.61,-103.79 651.61,-103.79"/>
</g>
<!-- AuthModule -->
<g id="node6" class="node">
<title>AuthModule</title>
<polygon fill="#8dd3c7" stroke="black" points="619.55,-84.8 616.55,-88.8 595.55,-88.8 592.55,-84.8 532.45,-84.8 532.45,-48.8 619.55,-48.8 619.55,-84.8"/>
<text text-anchor="middle" x="576" y="-62.6" font-family="Times,serif" font-size="14.00">AuthModule</text>
</g>
<!-- AuthModule&#45;&gt;AppModule -->
<g id="edge6" class="edge">
<title>AuthModule&#45;&gt;AppModule</title>
<path fill="none" stroke="black" d="M604.47,-84.91C604.47,-84.91 604.47,-103.79 604.47,-103.79"/>
<polygon fill="black" stroke="black" points="600.97,-103.79 604.47,-113.79 607.97,-103.79 600.97,-103.79"/>
</g>
<!-- CommonModule -->
<g id="node7" class="node">
<title>CommonModule</title>
<polygon fill="#8dd3c7" stroke="black" points="513.67,-84.8 510.67,-88.8 489.67,-88.8 486.67,-84.8 402.33,-84.8 402.33,-48.8 513.67,-48.8 513.67,-84.8"/>
<text text-anchor="middle" x="458" y="-62.6" font-family="Times,serif" font-size="14.00">CommonModule</text>
</g>
<!-- CommonModule&#45;&gt;AppModule -->
<g id="edge7" class="edge">
<title>CommonModule&#45;&gt;AppModule</title>
<path fill="none" stroke="black" d="M458,-84.81C458,-100.85 458,-121.8 458,-121.8 458,-121.8 579.12,-121.8 579.12,-121.8"/>
<polygon fill="black" stroke="black" points="579.12,-125.3 589.12,-121.8 579.12,-118.3 579.12,-125.3"/>
</g>
<!-- CustomersModule -->
<g id="node8" class="node">
<title>CustomersModule</title>
<polygon fill="#8dd3c7" stroke="black" points="383.93,-84.8 380.93,-88.8 359.93,-88.8 356.93,-84.8 264.07,-84.8 264.07,-48.8 383.93,-48.8 383.93,-84.8"/>
<text text-anchor="middle" x="324" y="-62.6" font-family="Times,serif" font-size="14.00">CustomersModule</text>
</g>
<!-- CustomersModule&#45;&gt;AppModule -->
<g id="edge8" class="edge">
<title>CustomersModule&#45;&gt;AppModule</title>
<path fill="none" stroke="black" d="M324,-85.07C324,-103.36 324,-128.8 324,-128.8 324,-128.8 579.28,-128.8 579.28,-128.8"/>
<polygon fill="black" stroke="black" points="579.28,-132.3 589.28,-128.8 579.28,-125.3 579.28,-132.3"/>
</g>
<!-- PackagesModule -->
<g id="node9" class="node">
<title>PackagesModule</title>
<polygon fill="#8dd3c7" stroke="black" points="245.64,-84.8 242.64,-88.8 221.64,-88.8 218.64,-84.8 134.36,-84.8 134.36,-48.8 245.64,-48.8 245.64,-84.8"/>
<text text-anchor="middle" x="190" y="-62.6" font-family="Times,serif" font-size="14.00">PackagesModule</text>
</g>
<!-- PackagesModule&#45;&gt;AppModule -->
<g id="edge9" class="edge">
<title>PackagesModule&#45;&gt;AppModule</title>
<path fill="none" stroke="black" d="M190,-84.93C190,-105.37 190,-135.8 190,-135.8 190,-135.8 579.11,-135.8 579.11,-135.8"/>
<polygon fill="black" stroke="black" points="579.11,-139.3 589.11,-135.8 579.11,-132.3 579.11,-139.3"/>
</g>
<!-- UsersModule -->
<g id="node10" class="node">
<title>UsersModule</title>
<polygon fill="#8dd3c7" stroke="black" points="115.92,-84.8 112.92,-88.8 91.92,-88.8 88.92,-84.8 24.08,-84.8 24.08,-48.8 115.92,-48.8 115.92,-84.8"/>
<text text-anchor="middle" x="70" y="-62.6" font-family="Times,serif" font-size="14.00">UsersModule</text>
</g>
<!-- UsersModule&#45;&gt;AppModule -->
<g id="edge10" class="edge">
<title>UsersModule&#45;&gt;AppModule</title>
<path fill="none" stroke="black" d="M70,-84.81C70,-107.29 70,-142.8 70,-142.8 70,-142.8 579.29,-142.8 579.29,-142.8"/>
<polygon fill="black" stroke="black" points="579.29,-146.3 589.29,-142.8 579.29,-139.3 579.29,-146.3"/>
</g>
</g>
</svg>
