<?xml version="1.0" encoding="UTF-8" standalone="no"?>
<!DOCTYPE svg PUBLIC "-//W3C//DTD SVG 1.1//EN"
 "http://www.w3.org/Graphics/SVG/1.1/DTD/svg11.dtd">
<!-- Generated by graphviz version 2.47.3 (20210619.1520)
 -->
<!-- Title: dependencies Pages: 1 -->
<svg width="1280pt" height="174pt"
 viewBox="0.00 0.00 1280.00 173.80" xmlns="http://www.w3.org/2000/svg" xmlns:xlink="http://www.w3.org/1999/xlink">
<g id="graph0" class="graph" transform="scale(1 1) rotate(0) translate(4 169.8)">
<title>dependencies</title>
<polygon fill="white" stroke="transparent" points="-4,4 -4,-169.8 1276,-169.8 1276,4 -4,4"/>
<text text-anchor="middle" x="636" y="-8.2" font-family="sans-serif" font-size="14.00">dependencies</text>
<g id="clust1" class="cluster">
<title>cluster_AppModule</title>
<polygon fill="none" stroke="black" stroke-dasharray="1,5" points="8,-32.8 8,-157.8 1264,-157.8 1264,-32.8 8,-32.8"/>
</g>
<g id="clust3" class="cluster">
<title>cluster_AppModule_imports</title>
<polygon fill="none" stroke="black" points="16,-40.8 16,-92.8 1256,-92.8 1256,-40.8 16,-40.8"/>
</g>
<!-- AccountCredentialModule -->
<g id="node1" class="node">
<title>AccountCredentialModule</title>
<polygon fill="#8dd3c7" stroke="black" points="1247.79,-84.8 1244.79,-88.8 1223.79,-88.8 1220.79,-84.8 1082.21,-84.8 1082.21,-48.8 1247.79,-48.8 1247.79,-84.8"/>
<text text-anchor="middle" x="1165" y="-62.6" font-family="Times,serif" font-size="14.00">AccountCredentialModule</text>
</g>
<!-- AppModule -->
<g id="node10" class="node">
<title>AppModule</title>
<polygon fill="#8dd3c7" stroke="black" points="601.66,-149.8 598.66,-153.8 577.66,-153.8 574.66,-149.8 518.34,-149.8 518.34,-113.8 601.66,-113.8 601.66,-149.8"/>
<text text-anchor="middle" x="560" y="-127.6" font-family="Times,serif" font-size="14.00">AppModule</text>
</g>
<!-- AccountCredentialModule&#45;&gt;AppModule -->
<g id="edge1" class="edge">
<title>AccountCredentialModule&#45;&gt;AppModule</title>
<path fill="none" stroke="black" d="M1165,-84.81C1165,-107.29 1165,-142.8 1165,-142.8 1165,-142.8 612.06,-142.8 612.06,-142.8"/>
<polygon fill="black" stroke="black" points="612.06,-139.3 602.06,-142.8 612.06,-146.3 612.06,-139.3"/>
</g>
<!-- AccountInfoKeysModule -->
<g id="node2" class="node">
<title>AccountInfoKeysModule</title>
<polygon fill="#8dd3c7" stroke="black" points="1064.56,-84.8 1061.56,-88.8 1040.56,-88.8 1037.56,-84.8 905.44,-84.8 905.44,-48.8 1064.56,-48.8 1064.56,-84.8"/>
<text text-anchor="middle" x="985" y="-62.6" font-family="Times,serif" font-size="14.00">AccountInfoKeysModule</text>
</g>
<!-- AccountInfoKeysModule&#45;&gt;AppModule -->
<g id="edge2" class="edge">
<title>AccountInfoKeysModule&#45;&gt;AppModule</title>
<path fill="none" stroke="black" d="M985,-84.93C985,-105.37 985,-135.8 985,-135.8 985,-135.8 611.91,-135.8 611.91,-135.8"/>
<polygon fill="black" stroke="black" points="611.91,-132.3 601.91,-135.8 611.91,-139.3 611.91,-132.3"/>
</g>
<!-- AccountModule -->
<g id="node3" class="node">
<title>AccountModule</title>
<polygon fill="#8dd3c7" stroke="black" points="887.48,-84.8 884.48,-88.8 863.48,-88.8 860.48,-84.8 780.52,-84.8 780.52,-48.8 887.48,-48.8 887.48,-84.8"/>
<text text-anchor="middle" x="834" y="-62.6" font-family="Times,serif" font-size="14.00">AccountModule</text>
</g>
<!-- AccountModule&#45;&gt;AppModule -->
<g id="edge3" class="edge">
<title>AccountModule&#45;&gt;AppModule</title>
<path fill="none" stroke="black" d="M834,-85.07C834,-103.36 834,-128.8 834,-128.8 834,-128.8 611.91,-128.8 611.91,-128.8"/>
<polygon fill="black" stroke="black" points="611.91,-125.3 601.91,-128.8 611.91,-132.3 611.91,-125.3"/>
</g>
<!-- AccountTypeModule -->
<g id="node4" class="node">
<title>AccountTypeModule</title>
<polygon fill="#8dd3c7" stroke="black" points="762.74,-84.8 759.74,-88.8 738.74,-88.8 735.74,-84.8 627.26,-84.8 627.26,-48.8 762.74,-48.8 762.74,-84.8"/>
<text text-anchor="middle" x="695" y="-62.6" font-family="Times,serif" font-size="14.00">AccountTypeModule</text>
</g>
<!-- AccountTypeModule&#45;&gt;AppModule -->
<g id="edge4" class="edge">
<title>AccountTypeModule&#45;&gt;AppModule</title>
<path fill="none" stroke="black" d="M695,-84.81C695,-100.85 695,-121.8 695,-121.8 695,-121.8 611.97,-121.8 611.97,-121.8"/>
<polygon fill="black" stroke="black" points="611.97,-118.3 601.97,-121.8 611.97,-125.3 611.97,-118.3"/>
</g>
<!-- AgentsModule -->
<g id="node5" class="node">
<title>AgentsModule</title>
<polygon fill="#8dd3c7" stroke="black" points="609.71,-84.8 606.71,-88.8 585.71,-88.8 582.71,-84.8 510.29,-84.8 510.29,-48.8 609.71,-48.8 609.71,-84.8"/>
<text text-anchor="middle" x="560" y="-62.6" font-family="Times,serif" font-size="14.00">AgentsModule</text>
</g>
<!-- AgentsModule&#45;&gt;AppModule -->
<g id="edge5" class="edge">
<title>AgentsModule&#45;&gt;AppModule</title>
<path fill="none" stroke="black" d="M560,-84.91C560,-84.91 560,-103.79 560,-103.79"/>
<polygon fill="black" stroke="black" points="556.5,-103.79 560,-113.79 563.5,-103.79 556.5,-103.79"/>
</g>
<!-- ClientsModule -->
<g id="node6" class="node">
<title>ClientsModule</title>
<polygon fill="#8dd3c7" stroke="black" points="492.72,-84.8 489.72,-88.8 468.72,-88.8 465.72,-84.8 393.28,-84.8 393.28,-48.8 492.72,-48.8 492.72,-84.8"/>
<text text-anchor="middle" x="443" y="-62.6" font-family="Times,serif" font-size="14.00">ClientsModule</text>
</g>
<!-- ClientsModule&#45;&gt;AppModule -->
<g id="edge6" class="edge">
<title>ClientsModule&#45;&gt;AppModule</title>
<path fill="none" stroke="black" d="M443,-84.81C443,-100.85 443,-121.8 443,-121.8 443,-121.8 508.09,-121.8 508.09,-121.8"/>
<polygon fill="black" stroke="black" points="508.09,-125.3 518.09,-121.8 508.09,-118.3 508.09,-125.3"/>
</g>
<!-- CommonModule -->
<g id="node7" class="node">
<title>CommonModule</title>
<polygon fill="#8dd3c7" stroke="black" points="375.67,-84.8 372.67,-88.8 351.67,-88.8 348.67,-84.8 264.33,-84.8 264.33,-48.8 375.67,-48.8 375.67,-84.8"/>
<text text-anchor="middle" x="320" y="-62.6" font-family="Times,serif" font-size="14.00">CommonModule</text>
</g>
<!-- CommonModule&#45;&gt;AppModule -->
<g id="edge7" class="edge">
<title>CommonModule&#45;&gt;AppModule</title>
<path fill="none" stroke="black" d="M320,-85.07C320,-103.36 320,-128.8 320,-128.8 320,-128.8 508.2,-128.8 508.2,-128.8"/>
<polygon fill="black" stroke="black" points="508.2,-132.3 518.2,-128.8 508.2,-125.3 508.2,-132.3"/>
</g>
<!-- PackagesModule -->
<g id="node8" class="node">
<title>PackagesModule</title>
<polygon fill="#8dd3c7" stroke="black" points="245.64,-84.8 242.64,-88.8 221.64,-88.8 218.64,-84.8 134.36,-84.8 134.36,-48.8 245.64,-48.8 245.64,-84.8"/>
<text text-anchor="middle" x="190" y="-62.6" font-family="Times,serif" font-size="14.00">PackagesModule</text>
</g>
<!-- PackagesModule&#45;&gt;AppModule -->
<g id="edge8" class="edge">
<title>PackagesModule&#45;&gt;AppModule</title>
<path fill="none" stroke="black" d="M190,-84.93C190,-105.37 190,-135.8 190,-135.8 190,-135.8 508.28,-135.8 508.28,-135.8"/>
<polygon fill="black" stroke="black" points="508.28,-139.3 518.28,-135.8 508.28,-132.3 508.28,-139.3"/>
</g>
<!-- UsersModule -->
<g id="node9" class="node">
<title>UsersModule</title>
<polygon fill="#8dd3c7" stroke="black" points="115.92,-84.8 112.92,-88.8 91.92,-88.8 88.92,-84.8 24.08,-84.8 24.08,-48.8 115.92,-48.8 115.92,-84.8"/>
<text text-anchor="middle" x="70" y="-62.6" font-family="Times,serif" font-size="14.00">UsersModule</text>
</g>
<!-- UsersModule&#45;&gt;AppModule -->
<g id="edge9" class="edge">
<title>UsersModule&#45;&gt;AppModule</title>
<path fill="none" stroke="black" d="M70,-84.81C70,-107.29 70,-142.8 70,-142.8 70,-142.8 508.22,-142.8 508.22,-142.8"/>
<polygon fill="black" stroke="black" points="508.22,-146.3 518.22,-142.8 508.22,-139.3 508.22,-146.3"/>
</g>
</g>
</svg>
