<?xml version="1.0" encoding="UTF-8" standalone="no"?>
<!DOCTYPE svg PUBLIC "-//W3C//DTD SVG 1.1//EN"
 "http://www.w3.org/Graphics/SVG/1.1/DTD/svg11.dtd">
<!-- Generated by graphviz version 2.47.3 (20210619.1520)
 -->
<!-- Title: dependencies Pages: 1 -->
<svg width="268pt" height="247pt"
 viewBox="0.00 0.00 268.00 246.80" xmlns="http://www.w3.org/2000/svg" xmlns:xlink="http://www.w3.org/1999/xlink">
<g id="graph0" class="graph" transform="scale(1 1) rotate(0) translate(4 242.8)">
<title>dependencies</title>
<polygon fill="white" stroke="transparent" points="-4,4 -4,-242.8 264,-242.8 264,4 -4,4"/>
<text text-anchor="middle" x="130" y="-8.2" font-family="sans-serif" font-size="14.00">dependencies</text>
<g id="clust1" class="cluster">
<title>cluster_AccountsProfilesModule</title>
<polygon fill="none" stroke="black" stroke-dasharray="1,5" points="8,-32.8 8,-230.8 252,-230.8 252,-32.8 8,-32.8"/>
</g>
<g id="clust4" class="cluster">
<title>cluster_AccountsProfilesModule_exports</title>
<polygon fill="none" stroke="black" points="43,-170.8 43,-222.8 217,-222.8 217,-170.8 43,-170.8"/>
</g>
<g id="clust6" class="cluster">
<title>cluster_AccountsProfilesModule_providers</title>
<polygon fill="none" stroke="black" points="16,-40.8 16,-92.8 244,-92.8 244,-40.8 16,-40.8"/>
</g>
<!-- AccountsProfilesService  -->
<g id="node1" class="node">
<title>AccountsProfilesService </title>
<polygon fill="#fb8072" stroke="black" points="208.89,-214.8 51.11,-214.8 51.11,-178.8 208.89,-178.8 208.89,-214.8"/>
<text text-anchor="middle" x="130" y="-192.6" font-family="Times,serif" font-size="14.00">AccountsProfilesService </text>
</g>
<!-- AccountsProfilesModule -->
<g id="node2" class="node">
<title>AccountsProfilesModule</title>
<polygon fill="#8dd3c7" stroke="black" points="207.97,-149.8 204.97,-153.8 183.97,-153.8 180.97,-149.8 52.03,-149.8 52.03,-113.8 207.97,-113.8 207.97,-149.8"/>
<text text-anchor="middle" x="130" y="-127.6" font-family="Times,serif" font-size="14.00">AccountsProfilesModule</text>
</g>
<!-- AccountsProfilesModule&#45;&gt;AccountsProfilesService  -->
<g id="edge1" class="edge">
<title>AccountsProfilesModule&#45;&gt;AccountsProfilesService </title>
<path fill="none" stroke="black" stroke-dasharray="5,2" d="M130,-149.91C130,-149.91 130,-168.79 130,-168.79"/>
<polygon fill="black" stroke="black" points="126.5,-168.79 130,-178.79 133.5,-168.79 126.5,-168.79"/>
</g>
<!-- AccountsProfilesService -->
<g id="node3" class="node">
<title>AccountsProfilesService</title>
<ellipse fill="#fdb462" stroke="black" cx="130" cy="-66.8" rx="106.49" ry="18"/>
<text text-anchor="middle" x="130" y="-62.6" font-family="Times,serif" font-size="14.00">AccountsProfilesService</text>
</g>
<!-- AccountsProfilesService&#45;&gt;AccountsProfilesModule -->
<g id="edge2" class="edge">
<title>AccountsProfilesService&#45;&gt;AccountsProfilesModule</title>
<path fill="none" stroke="black" d="M130,-84.91C130,-84.91 130,-103.79 130,-103.79"/>
<polygon fill="black" stroke="black" points="126.5,-103.79 130,-113.79 133.5,-103.79 126.5,-103.79"/>
</g>
</g>
</svg>
