<?xml version="1.0" encoding="UTF-8" standalone="no"?>
<!DOCTYPE svg PUBLIC "-//W3C//DTD SVG 1.1//EN"
 "http://www.w3.org/Graphics/SVG/1.1/DTD/svg11.dtd">
<!-- Generated by graphviz version 2.47.3 (20210619.1520)
 -->
<!-- Title: dependencies Pages: 1 -->
<svg width="432pt" height="247pt"
 viewBox="0.00 0.00 432.00 246.80" xmlns="http://www.w3.org/2000/svg" xmlns:xlink="http://www.w3.org/1999/xlink">
<g id="graph0" class="graph" transform="scale(1 1) rotate(0) translate(4 242.8)">
<title>dependencies</title>
<polygon fill="white" stroke="transparent" points="-4,4 -4,-242.8 428,-242.8 428,4 -4,4"/>
<text text-anchor="middle" x="212" y="-8.2" font-family="sans-serif" font-size="14.00">dependencies</text>
<g id="clust1" class="cluster">
<title>cluster_AccountsCredentialsModule</title>
<polygon fill="none" stroke="black" stroke-dasharray="1,5" points="8,-32.8 8,-230.8 416,-230.8 416,-32.8 8,-32.8"/>
</g>
<g id="clust3" class="cluster">
<title>cluster_AccountsCredentialsModule_imports</title>
<polygon fill="none" stroke="black" points="280,-40.8 280,-92.8 408,-92.8 408,-40.8 280,-40.8"/>
</g>
<g id="clust4" class="cluster">
<title>cluster_AccountsCredentialsModule_exports</title>
<polygon fill="none" stroke="black" points="130,-170.8 130,-222.8 324,-222.8 324,-170.8 130,-170.8"/>
</g>
<g id="clust6" class="cluster">
<title>cluster_AccountsCredentialsModule_providers</title>
<polygon fill="none" stroke="black" points="16,-40.8 16,-92.8 272,-92.8 272,-40.8 16,-40.8"/>
</g>
<!-- CommonModule -->
<g id="node1" class="node">
<title>CommonModule</title>
<polygon fill="#8dd3c7" stroke="black" points="399.67,-84.8 396.67,-88.8 375.67,-88.8 372.67,-84.8 288.33,-84.8 288.33,-48.8 399.67,-48.8 399.67,-84.8"/>
<text text-anchor="middle" x="344" y="-62.6" font-family="Times,serif" font-size="14.00">CommonModule</text>
</g>
<!-- AccountsCredentialsModule -->
<g id="node2" class="node">
<title>AccountsCredentialsModule</title>
<polygon fill="#8dd3c7" stroke="black" points="315.18,-149.8 312.18,-153.8 291.18,-153.8 288.18,-149.8 138.82,-149.8 138.82,-113.8 315.18,-113.8 315.18,-149.8"/>
<text text-anchor="middle" x="227" y="-127.6" font-family="Times,serif" font-size="14.00">AccountsCredentialsModule</text>
</g>
<!-- CommonModule&#45;&gt;AccountsCredentialsModule -->
<g id="edge1" class="edge">
<title>CommonModule&#45;&gt;AccountsCredentialsModule</title>
<path fill="none" stroke="black" d="M301.63,-84.91C301.63,-84.91 301.63,-103.79 301.63,-103.79"/>
<polygon fill="black" stroke="black" points="298.13,-103.79 301.63,-113.79 305.13,-103.79 298.13,-103.79"/>
</g>
<!-- AccountsCredentialsService  -->
<g id="node3" class="node">
<title>AccountsCredentialsService </title>
<polygon fill="#fb8072" stroke="black" points="316.11,-214.8 137.89,-214.8 137.89,-178.8 316.11,-178.8 316.11,-214.8"/>
<text text-anchor="middle" x="227" y="-192.6" font-family="Times,serif" font-size="14.00">AccountsCredentialsService </text>
</g>
<!-- AccountsCredentialsModule&#45;&gt;AccountsCredentialsService  -->
<g id="edge2" class="edge">
<title>AccountsCredentialsModule&#45;&gt;AccountsCredentialsService </title>
<path fill="none" stroke="black" stroke-dasharray="5,2" d="M227,-149.91C227,-149.91 227,-168.79 227,-168.79"/>
<polygon fill="black" stroke="black" points="223.5,-168.79 227,-178.79 230.5,-168.79 223.5,-168.79"/>
</g>
<!-- AccountsCredentialsService -->
<g id="node4" class="node">
<title>AccountsCredentialsService</title>
<ellipse fill="#fdb462" stroke="black" cx="144" cy="-66.8" rx="120.38" ry="18"/>
<text text-anchor="middle" x="144" y="-62.6" font-family="Times,serif" font-size="14.00">AccountsCredentialsService</text>
</g>
<!-- AccountsCredentialsService&#45;&gt;AccountsCredentialsModule -->
<g id="edge3" class="edge">
<title>AccountsCredentialsService&#45;&gt;AccountsCredentialsModule</title>
<path fill="none" stroke="black" d="M201.68,-82.87C201.68,-82.87 201.68,-103.62 201.68,-103.62"/>
<polygon fill="black" stroke="black" points="198.18,-103.62 201.68,-113.62 205.18,-103.62 198.18,-103.62"/>
</g>
</g>
</svg>
