<?xml version="1.0" encoding="UTF-8" standalone="no"?>
<!DOCTYPE svg PUBLIC "-//W3C//DTD SVG 1.1//EN"
 "http://www.w3.org/Graphics/SVG/1.1/DTD/svg11.dtd">
<!-- Generated by graphviz version 2.47.3 (20210619.1520)
 -->
<!-- Title: dependencies Pages: 1 -->
<svg width="1016pt" height="174pt"
 viewBox="0.00 0.00 1016.00 173.80" xmlns="http://www.w3.org/2000/svg" xmlns:xlink="http://www.w3.org/1999/xlink">
<g id="graph0" class="graph" transform="scale(1 1) rotate(0) translate(4 169.8)">
<title>dependencies</title>
<polygon fill="white" stroke="transparent" points="-4,4 -4,-169.8 1012,-169.8 1012,4 -4,4"/>
<text text-anchor="middle" x="504" y="-8.2" font-family="sans-serif" font-size="14.00">dependencies</text>
<g id="clust1" class="cluster">
<title>cluster_CustomersModule</title>
<polygon fill="none" stroke="black" stroke-dasharray="1,5" points="8,-32.8 8,-157.8 1000,-157.8 1000,-32.8 8,-32.8"/>
</g>
<g id="clust6" class="cluster">
<title>cluster_CustomersModule_providers</title>
<polygon fill="none" stroke="black" points="814,-40.8 814,-92.8 992,-92.8 992,-40.8 814,-40.8"/>
</g>
<g id="clust3" class="cluster">
<title>cluster_CustomersModule_imports</title>
<polygon fill="none" stroke="black" points="16,-40.8 16,-92.8 806,-92.8 806,-40.8 16,-40.8"/>
</g>
<!-- AccountsCredentialsModule -->
<g id="node1" class="node">
<title>AccountsCredentialsModule</title>
<polygon fill="#8dd3c7" stroke="black" points="798.18,-84.8 795.18,-88.8 774.18,-88.8 771.18,-84.8 621.82,-84.8 621.82,-48.8 798.18,-48.8 798.18,-84.8"/>
<text text-anchor="middle" x="710" y="-62.6" font-family="Times,serif" font-size="14.00">AccountsCredentialsModule</text>
</g>
<!-- CustomersModule -->
<g id="node6" class="node">
<title>CustomersModule</title>
<polygon fill="#8dd3c7" stroke="black" points="531.93,-149.8 528.93,-153.8 507.93,-153.8 504.93,-149.8 412.07,-149.8 412.07,-113.8 531.93,-113.8 531.93,-149.8"/>
<text text-anchor="middle" x="472" y="-127.6" font-family="Times,serif" font-size="14.00">CustomersModule</text>
</g>
<!-- AccountsCredentialsModule&#45;&gt;CustomersModule -->
<g id="edge1" class="edge">
<title>AccountsCredentialsModule&#45;&gt;CustomersModule</title>
<path fill="none" stroke="black" d="M710,-84.82C710,-102.17 710,-125.8 710,-125.8 710,-125.8 541.75,-125.8 541.75,-125.8"/>
<polygon fill="black" stroke="black" points="541.75,-122.3 531.75,-125.8 541.75,-129.3 541.75,-122.3"/>
</g>
<!-- AccountsModule -->
<g id="node2" class="node">
<title>AccountsModule</title>
<polygon fill="#8dd3c7" stroke="black" points="604.42,-84.8 601.42,-88.8 580.42,-88.8 577.42,-84.8 491.58,-84.8 491.58,-48.8 604.42,-48.8 604.42,-84.8"/>
<text text-anchor="middle" x="548" y="-62.6" font-family="Times,serif" font-size="14.00">AccountsModule</text>
</g>
<!-- AccountsModule&#45;&gt;CustomersModule -->
<g id="edge2" class="edge">
<title>AccountsModule&#45;&gt;CustomersModule</title>
<path fill="none" stroke="black" d="M511.75,-84.91C511.75,-84.91 511.75,-103.79 511.75,-103.79"/>
<polygon fill="black" stroke="black" points="508.25,-103.79 511.75,-113.79 515.25,-103.79 508.25,-103.79"/>
</g>
<!-- AccountsProfilesModule -->
<g id="node3" class="node">
<title>AccountsProfilesModule</title>
<polygon fill="#8dd3c7" stroke="black" points="473.97,-84.8 470.97,-88.8 449.97,-88.8 446.97,-84.8 318.03,-84.8 318.03,-48.8 473.97,-48.8 473.97,-84.8"/>
<text text-anchor="middle" x="396" y="-62.6" font-family="Times,serif" font-size="14.00">AccountsProfilesModule</text>
</g>
<!-- AccountsProfilesModule&#45;&gt;CustomersModule -->
<g id="edge3" class="edge">
<title>AccountsProfilesModule&#45;&gt;CustomersModule</title>
<path fill="none" stroke="black" d="M443.13,-84.91C443.13,-84.91 443.13,-103.79 443.13,-103.79"/>
<polygon fill="black" stroke="black" points="439.63,-103.79 443.13,-113.79 446.63,-103.79 439.63,-103.79"/>
</g>
<!-- AccountsTypesModule -->
<g id="node4" class="node">
<title>AccountsTypesModule</title>
<polygon fill="#8dd3c7" stroke="black" points="300.13,-84.8 297.13,-88.8 276.13,-88.8 273.13,-84.8 153.87,-84.8 153.87,-48.8 300.13,-48.8 300.13,-84.8"/>
<text text-anchor="middle" x="227" y="-62.6" font-family="Times,serif" font-size="14.00">AccountsTypesModule</text>
</g>
<!-- AccountsTypesModule&#45;&gt;CustomersModule -->
<g id="edge4" class="edge">
<title>AccountsTypesModule&#45;&gt;CustomersModule</title>
<path fill="none" stroke="black" d="M227,-84.82C227,-102.17 227,-125.8 227,-125.8 227,-125.8 402.07,-125.8 402.07,-125.8"/>
<polygon fill="black" stroke="black" points="402.07,-129.3 412.07,-125.8 402.07,-122.3 402.07,-129.3"/>
</g>
<!-- CommonModule -->
<g id="node5" class="node">
<title>CommonModule</title>
<polygon fill="#8dd3c7" stroke="black" points="135.67,-84.8 132.67,-88.8 111.67,-88.8 108.67,-84.8 24.33,-84.8 24.33,-48.8 135.67,-48.8 135.67,-84.8"/>
<text text-anchor="middle" x="80" y="-62.6" font-family="Times,serif" font-size="14.00">CommonModule</text>
</g>
<!-- CommonModule&#45;&gt;CustomersModule -->
<g id="edge5" class="edge">
<title>CommonModule&#45;&gt;CustomersModule</title>
<path fill="none" stroke="black" d="M80,-85.08C80,-106.12 80,-137.8 80,-137.8 80,-137.8 402.04,-137.8 402.04,-137.8"/>
<polygon fill="black" stroke="black" points="402.04,-141.3 412.04,-137.8 402.04,-134.3 402.04,-141.3"/>
</g>
<!-- CustomersService -->
<g id="node7" class="node">
<title>CustomersService</title>
<ellipse fill="#fdb462" stroke="black" cx="903" cy="-66.8" rx="81.1" ry="18"/>
<text text-anchor="middle" x="903" y="-62.6" font-family="Times,serif" font-size="14.00">CustomersService</text>
</g>
<!-- CustomersService&#45;&gt;CustomersModule -->
<g id="edge6" class="edge">
<title>CustomersService&#45;&gt;CustomersModule</title>
<path fill="none" stroke="black" d="M903,-85.08C903,-106.12 903,-137.8 903,-137.8 903,-137.8 541.93,-137.8 541.93,-137.8"/>
<polygon fill="black" stroke="black" points="541.93,-134.3 531.93,-137.8 541.93,-141.3 541.93,-134.3"/>
</g>
</g>
</svg>
